<?xml version="1.0" standalone="no"?><!DOCTYPE svg PUBLIC "-//W3C//DTD SVG 1.1//EN" "http://www.w3.org/Graphics/SVG/1.1/DTD/svg11.dtd"><svg t="1641996825114" class="icon" viewBox="0 0 1024 1024" version="1.1" xmlns="http://www.w3.org/2000/svg" p-id="2949" xmlns:xlink="http://www.w3.org/1999/xlink" width="200" height="200"><defs><style type="text/css"></style></defs><path d="M770.528395 935.556741v-87.381334h-87.330765c-15.448494 0-28.077827-12.641975-28.077828-28.077827s12.629333-28.077827 28.077828-28.077827h87.330765v-87.330765c0-15.435852 12.629333-28.077827 28.077827-28.077828 15.435852 0 28.077827 12.641975 28.077827 28.077828v87.330765H852.069136l-34.613729-532.088099c-1.251556-19.241086-16.346074-34.196543-34.550518-34.196543h-129.327408C653.577481 104.068741 560.519901 5.436049 445.718123 5.436049S237.858765 104.068741 237.858765 225.735111H108.493432c-18.204444 0-33.298963 14.955457-34.550518 34.196543L32.527802 896.353975a41.364543 41.364543 0 0 0-0.075851 2.503111c0 20.277728 15.499062 36.712296 34.62637 36.724939H770.528395v-0.025284zM445.69284 78.885926c76.534519 0 138.581333 65.750914 138.581333 146.861827H307.111506c0-81.110914 62.046815-146.861827 138.581334-146.861827z m0 660.884543c-88.506469 0.06321-170.666667-48.760099-216.797235-128.809086a38.431605 38.431605 0 0 1-5.714173-20.201877c0-20.277728 15.511704-36.712296 34.651654-36.699654h0.025284c12.490272 0 24.007111 7.10479 30.189037 18.596346 33.551802 58.216296 93.297778 93.740247 157.670716 93.689679 64.372938 0.025284 124.118914-35.498667 157.658075-93.714963 9.98716-17.306864 31.314173-22.742914 47.647604-12.161581s21.466074 33.197827 11.466272 50.49205c-44.638815 77.255111-125.029136 128.809086-216.797234 128.809086zM826.684049 848.175407v87.343408c19.089383-1.403259 33.488593-18.925037 32.173828-39.16484l-3.13521-48.19121h-29.038618z" p-id="2950"></path><path d="M941.612247 677.091556c-78.987062-78.987062-207.062914-78.987062-286.024691 0-78.987062 78.97442-78.987062 207.062914 0 286.075259 78.961778 78.97442 207.03763 78.97442 286.062617 0s78.97442-207.10084-0.037926-286.075259z m-27.610074 171.083851h-87.318124v87.343408c0 15.473778-12.641975 28.103111-28.077827 28.103111a28.153679 28.153679 0 0 1-28.077827-28.065185v-87.381334h-87.330765c-15.448494 0-28.077827-12.641975-28.077828-28.077827s12.629333-28.077827 28.077828-28.077827h87.330765v-87.330765c0-15.435852 12.629333-28.077827 28.077827-28.077828 15.435852 0 28.077827 12.641975 28.077827 28.077828v87.330765h87.318124c15.448494 0 28.065185 12.641975 28.065185 28.077827s-12.616691 28.077827-28.065185 28.077827z" p-id="2951"></path></svg>