<?xml version="1.0" standalone="no"?><!DOCTYPE svg PUBLIC "-//W3C//DTD SVG 1.1//EN" "http://www.w3.org/Graphics/SVG/1.1/DTD/svg11.dtd"><svg t="1640872868421" class="icon" viewBox="0 0 1024 1024" version="1.1" xmlns="http://www.w3.org/2000/svg" p-id="2117" xmlns:xlink="http://www.w3.org/1999/xlink" width="200" height="200"><defs><style type="text/css"></style></defs><path d="M431.6672 186.4192L339.6096 372.5312a12.8 12.8 0 0 1-16.1792 6.1952l-135.3216-53.76a89.6 89.6 0 0 0-120.4736 102.9632l78.7968 349.696a140.8 140.8 0 0 0 137.3696 109.824h456.3968a140.8 140.8 0 0 0 137.3696-109.824l78.848-349.696a89.6 89.6 0 0 0-120.5248-102.912l-135.3216 53.76a12.8 12.8 0 0 1-16.1792-6.2464l-92.0576-186.112a89.6 89.6 0 0 0-160.6656 0z m86.016 28.2624a12.8 12.8 0 0 1 5.7856 5.7856l92.0576 186.112a89.6 89.6 0 0 0 113.408 43.52l135.3216-53.76a12.8 12.8 0 0 1 17.2032 14.6944l-78.848 349.696a64 64 0 0 1-62.4128 49.92H283.8016a64 64 0 0 1-62.464-49.92l-78.7968-349.696a12.8 12.8 0 0 1 17.2032-14.6944l135.3216 53.76a89.6 89.6 0 0 0 113.408-43.52l92.0576-186.112a12.8 12.8 0 0 1 13.8752-6.8608l3.2768 1.0752z" p-id="2118"></path><path d="M358.4 614.4m38.4 0l230.4 0q38.4 0 38.4 38.4l0 0q0 38.4-38.4 38.4l-230.4 0q-38.4 0-38.4-38.4l0 0q0-38.4 38.4-38.4Z" p-id="2119"></path></svg>