<?xml version="1.0" standalone="no"?><!DOCTYPE svg PUBLIC "-//W3C//DTD SVG 1.1//EN" "http://www.w3.org/Graphics/SVG/1.1/DTD/svg11.dtd"><svg t="1640872850462" class="icon" viewBox="0 0 1024 1024" version="1.1" xmlns="http://www.w3.org/2000/svg" p-id="1186" xmlns:xlink="http://www.w3.org/1999/xlink" width="200" height="200"><defs><style type="text/css"></style></defs><path d="M512 102.4a243.2 243.2 0 1 0 0 486.4A243.2 243.2 0 0 0 512 102.4z m0 76.8a166.4 166.4 0 1 1 0 332.8 166.4 166.4 0 0 1 0-332.8z" p-id="1187"></path><path d="M272.7936 281.6m38.4 0l486.4 0q38.4 0 38.4 38.4l0 0q0 38.4-38.4 38.4l-486.4 0q-38.4 0-38.4-38.4l0 0q0-38.4 38.4-38.4Z" p-id="1188"></path><path d="M512 512a371.2 371.2 0 0 0-371.2 371.2c0 21.1968 17.2032 38.4 38.4 38.4h665.6a38.4 38.4 0 0 0 38.4-38.4A371.2 371.2 0 0 0 512 512z m11.264 77.0048a294.5024 294.5024 0 0 1 279.808 249.7024l0.768 6.0928H220.1088l0.8192-6.0928A294.4512 294.4512 0 0 1 512 588.8l11.264 0.2048z" p-id="1189"></path></svg>