<?xml version="1.0" standalone="no"?><!DOCTYPE svg PUBLIC "-//W3C//DTD SVG 1.1//EN" "http://www.w3.org/Graphics/SVG/1.1/DTD/svg11.dtd"><svg t="1640872887583" class="icon" viewBox="0 0 1024 1024" version="1.1" xmlns="http://www.w3.org/2000/svg" p-id="3504" xmlns:xlink="http://www.w3.org/1999/xlink" width="200" height="200"><defs><style type="text/css"></style></defs><path d="M780.8 102.4H243.2A140.8 140.8 0 0 0 102.4 243.2v537.6A140.8 140.8 0 0 0 243.2 921.6h537.6A140.8 140.8 0 0 0 921.6 780.8V243.2A140.8 140.8 0 0 0 780.8 102.4zM243.2 179.2h537.6c35.328 0 64 28.672 64 64v537.6c0 35.328-28.672 64-64 64H243.2c-35.328 0-64-28.672-64-64V243.2c0-35.328 28.672-64 64-64z" p-id="3505"></path><path d="M625.2032 623.4112a29.7984 29.7984 0 0 0 20.0192-7.4752 30.208 30.208 0 0 0 10.3424-19.6096l37.5808-274.5856h-62.6688a20.224 20.224 0 0 0-13.9264 5.2224 21.6576 21.6576 0 0 0-7.1168 13.3632l-38.8096 283.136h54.5792z m-243.456 78.848c1.8944 0 3.584-0.6656 5.12-2.048a7.936 7.936 0 0 0 2.56-4.8128l36.4032-267.3152h49.3568a16.8448 16.8448 0 0 0 16.9984-15.36l2.4064-16.5888H430.2848l5.2736-37.632h38.4a24.7808 24.7808 0 0 0 16.9984-6.4512 27.2384 27.2384 0 0 0 8.9088-16.5888l1.2288-8.9088H323.5328a16.7424 16.7424 0 0 0-11.7248 4.4544 19.456 19.456 0 0 0-6.0416 11.3664l-2.4576 16.128h61.9008l-5.2736 37.632h-50.944a15.0528 15.0528 0 0 0-10.1376 3.84 15.3088 15.3088 0 0 0-5.2224 9.9328l-2.4576 18.176h64.7168l-37.632 274.176h63.488z m145.6128-99.4816a26.0608 26.0608 0 0 0 17.6128-6.4512 28.928 28.928 0 0 0 9.472-16.9984l42.0864-244.224h-40.8576a28.672 28.672 0 0 0-19.2 7.0656 30.4128 30.4128 0 0 0-10.3424 18.3808l-41.6256 242.2272h42.8544z m230.0928-64.7168L768 366.2336a30.0544 30.0544 0 0 0-7.8848-22.016 26.9824 26.9824 0 0 0-20.8384-9.1648h-35.1744l-12.544 203.008h65.8944zM256 702.2592a50.0736 50.0736 0 0 0 34.3552-12.9024 56.32 56.32 0 0 0 18.2272-33.1776l33.536-209.1008h-31.1296a16.64 16.64 0 0 0-11.3152 4.2496 18.5856 18.5856 0 0 0-6.0416 11.1104L256 702.2592z m194.56 0l28.672-245.4528a8.7552 8.7552 0 0 0-2.048-6.8608 7.68 7.68 0 0 0-6.0416-2.8672h-37.2224L410.112 655.36a43.0592 43.0592 0 0 0 10.3424 33.1776 37.888 37.888 0 0 0 24.2176 13.312l5.888 0.4096z m226.816-2.816c11.6224 0 22.016-4.0448 31.1808-12.1344 9.1648-8.0896 14.9504-17.92 17.408-29.5424l18.176-95.4368h-55.04c-4.608 0-8.704 1.536-12.288 4.6592a21.2992 21.2992 0 0 0-7.1168 11.9296l-12.1344 69.9904a23.1424 23.1424 0 0 1-7.68 13.312 21.0432 21.0432 0 0 1-14.1312 5.632h-121.344a26.112 26.112 0 0 0-17.9712 6.7072 27.2384 27.2384 0 0 0-7.936 12.1856l-1.1776 5.0176-1.2288 7.68h191.2832z" p-id="3506"></path></svg>