<?xml version="1.0" standalone="no"?><!DOCTYPE svg PUBLIC "-//W3C//DTD SVG 1.1//EN" "http://www.w3.org/Graphics/SVG/1.1/DTD/svg11.dtd"><svg t="1640872893168" class="icon" viewBox="0 0 1024 1024" version="1.1" xmlns="http://www.w3.org/2000/svg" p-id="3962" xmlns:xlink="http://www.w3.org/1999/xlink" width="200" height="200"><defs><style type="text/css"></style></defs><path d="M102.4 844.8m38.4 0l742.4 0q38.4 0 38.4 38.4l0 0q0 38.4-38.4 38.4l-742.4 0q-38.4 0-38.4-38.4l0 0q0-38.4 38.4-38.4Z" p-id="3963"></path><path d="M353.1264 128.6144l-140.3904 100.352a140.8 140.8 0 0 0-58.9824 114.5344v577.4848h421.9904V243.2a140.8 140.8 0 0 0-222.6176-114.5856z m138.1376 84.1728c5.0176 9.2672 7.68 19.7632 7.68 30.4128v600.9344H230.5536V343.5008c0-20.6848 9.984-40.0896 26.8288-52.0704l140.3904-100.3008a64 64 0 0 1 89.2928 14.848l4.1984 6.8096z" p-id="3964"></path><path d="M251.235799 446.283824m33.255375-19.2l110.851252-64q33.255376-19.2 52.455375 14.055376l0 0q19.2 33.255376-14.055375 52.455376l-110.851252 64q-33.255376 19.2-52.455375-14.055376l0 0q-19.2-33.255376 14.055375-52.455376Z" p-id="3965"></path><path d="M251.235799 600.754224m33.255375-19.2l110.851252-64q33.255376-19.2 52.455375 14.055376l0 0q19.2 33.255376-14.055375 52.455376l-110.851252 64q-33.255376 19.2-52.455375-14.055376l0 0q-19.2-33.255376 14.055375-52.455376Z" p-id="3966"></path><path d="M664.9344 223.6416a38.4 38.4 0 0 0-49.0496 58.88l4.4032 3.584 147.968 105.6768c13.824 9.8816 22.7328 25.088 24.7296 41.7792l0.4608 7.2704v442.368a38.4 38.4 0 0 0 76.4416 5.2224l0.3584-5.2224V440.832c0-41.1136-18.432-79.872-49.92-105.7792l-7.4752-5.7344-147.968-105.6768z" p-id="3967"></path></svg>