<?xml version="1.0" standalone="no"?><!DOCTYPE svg PUBLIC "-//W3C//DTD SVG 1.1//EN" "http://www.w3.org/Graphics/SVG/1.1/DTD/svg11.dtd"><svg t="1640872855642" class="icon" viewBox="0 0 1024 1024" version="1.1" xmlns="http://www.w3.org/2000/svg" p-id="1339" xmlns:xlink="http://www.w3.org/1999/xlink" width="200" height="200"><defs><style type="text/css"></style></defs><path d="M399.5648 110.9504a38.4 38.4 0 1 1 20.992 73.8816 332.8 332.8 0 1 0 411.0848 413.0304 38.4 38.4 0 1 1 73.728 21.4016 409.6 409.6 0 1 1-505.856-508.3136z" p-id="1340"></path><path d="M550.4 102.4a38.4 38.4 0 0 0-38.4 38.4v332.8c0 21.1968 17.2032 38.4 38.4 38.4h332.8a38.4 38.4 0 0 0 38.4-39.0656l-0.2048-11.9296A371.3536 371.3536 0 0 0 550.4 102.4z m38.4 79.3088l7.168 1.024a294.6048 294.6048 0 0 1 245.4528 246.1184l0.8192 6.3488H588.8V181.7088z" p-id="1341"></path></svg>