<?xml version="1.0" standalone="no"?><!DOCTYPE svg PUBLIC "-//W3C//DTD SVG 1.1//EN" "http://www.w3.org/Graphics/SVG/1.1/DTD/svg11.dtd"><svg t="1640872865563" class="icon" viewBox="0 0 1024 1024" version="1.1" xmlns="http://www.w3.org/2000/svg" p-id="1963" xmlns:xlink="http://www.w3.org/1999/xlink" width="200" height="200"><defs><style type="text/css"></style></defs><path d="M433.3056 126.3104L154.7776 312.32a140.8 140.8 0 0 0-62.5664 117.0944v351.3856A140.8 140.8 0 0 0 232.96 921.6h557.9776a140.8 140.8 0 0 0 140.8-140.8V429.568c0-47.104-23.552-91.136-62.7712-117.248l-279.5008-186.0608a140.8 140.8 0 0 0-156.16 0.1024z m113.664 63.8464l279.5008 186.0608c17.8176 11.8272 28.5184 31.8464 28.5184 53.248v351.2832c0 35.328-28.672 64-64 64H233.0112c-35.328 0-64-28.672-64-64V429.3632c0-21.3504 10.6496-41.3184 28.4672-53.248l278.528-185.9072c21.4528-14.336 49.4592-14.336 70.9632-0.0512z" p-id="1964"></path><path d="M358.4 665.6m38.4 0l230.4 0q38.4 0 38.4 38.4l0 0q0 38.4-38.4 38.4l-230.4 0q-38.4 0-38.4-38.4l0 0q0-38.4 38.4-38.4Z" p-id="1965"></path></svg>