<?xml version="1.0" standalone="no"?><!DOCTYPE svg PUBLIC "-//W3C//DTD SVG 1.1//EN" "http://www.w3.org/Graphics/SVG/1.1/DTD/svg11.dtd"><svg t="1642169424506" class="icon" viewBox="0 0 1024 1024" version="1.1" xmlns="http://www.w3.org/2000/svg" p-id="2171" xmlns:xlink="http://www.w3.org/1999/xlink" width="200" height="200"><defs><style type="text/css"></style></defs><path d="M721.024 725.333333A298.666667 298.666667 0 1 1 810.666667 512a42.666667 42.666667 0 0 0 85.333333 0 384 384 0 1 0-128 286.208V810.666667c0 23.722667 19.114667 42.666667 42.666667 42.666666 23.722667 0 42.666667-19.114667 42.666666-42.666666v-128a42.538667 42.538667 0 0 0-42.666666-42.666667h-128c-23.722667 0-42.666667 19.114667-42.666667 42.666667 0 23.722667 19.114667 42.666667 42.666667 42.666666h38.357333z" fill="#3D3D3D" p-id="2172"></path></svg>