<?xml version="1.0" standalone="no"?><!DOCTYPE svg PUBLIC "-//W3C//DTD SVG 1.1//EN" "http://www.w3.org/Graphics/SVG/1.1/DTD/svg11.dtd"><svg t="1640941981470" class="icon" viewBox="0 0 1024 1024" version="1.1" xmlns="http://www.w3.org/2000/svg" p-id="3573" xmlns:xlink="http://www.w3.org/1999/xlink" width="200" height="200"><defs><style type="text/css"></style></defs><path d="M309.4 244.9c22.6 0 41 18.3 41 41v170.8c0 22.6-18.3 41-41 41-22.6 0-41-18.3-41-41V285.9c0.1-22.6 18.4-41 41-41zM713.5 240.9c22.6 0 41 18.3 41 41v23.4c0 22.6-18.3 41-41 41-22.6 0-41-18.3-41-41v-23.4c0.1-22.6 18.4-41 41-41z" p-id="3574"></path><path d="M511.5 120.9c89 0 161.1 72.1 161.1 161.1h81.9c0-134.2-108.8-243-243-243s-243 108.8-243 243h81.9c0-89 72.1-161.1 161.1-161.1zM877.4 932.6V476.8c-3.4-33.4-31-59.7-64.9-61H212.7c-37.5 0-68 30.4-68.1 67.9V928c4 30.2 27.8 54.2 57.9 58.5H824c27-5.5 48.2-26.8 53.4-53.9z" p-id="3575"></path><path d="M436.9 701.1c0-22.6 18.3-41 41-41h66.2c22.6 0 41 18.3 41 41 0 22.6-18.3 41-41 41h-66.2c-22.6-0.1-41-18.4-41-41z" p-id="3576"></path></svg>