<?xml version="1.0" standalone="no"?><!DOCTYPE svg PUBLIC "-//W3C//DTD SVG 1.1//EN" "http://www.w3.org/Graphics/SVG/1.1/DTD/svg11.dtd"><svg t="1640872875953" class="icon" viewBox="0 0 1024 1024" version="1.1" xmlns="http://www.w3.org/2000/svg" p-id="2581" xmlns:xlink="http://www.w3.org/1999/xlink" width="200" height="200"><defs><style type="text/css"></style></defs><path d="M812.3904 145.92H211.6096A147.6096 147.6096 0 0 0 64 293.5296v93.3376a38.4 38.4 0 0 0 23.04 35.1744 98.1504 98.1504 0 0 1 0 179.9168 38.4 38.4 0 0 0-23.04 35.1744v93.2864a147.6096 147.6096 0 0 0 147.6096 147.6608h600.7808a147.6096 147.6096 0 0 0 147.6096-147.6096v-93.3376a38.4 38.4 0 0 0-23.04-35.1744 98.1504 98.1504 0 0 1 0-179.9168 38.4 38.4 0 0 0 23.04-35.1744V293.5808a147.6096 147.6096 0 0 0-147.6096-147.6608z m0 76.8l6.8096 0.3072c35.8912 3.4304 64 33.6896 64 70.5024l-0.0512 70.3488-3.8912 2.4576A174.8992 174.8992 0 0 0 801.28 512l0.3072 10.4448a174.8992 174.8992 0 0 0 77.6704 135.168l3.8912 2.4576v70.4c0 39.1168-31.6416 70.8096-70.7584 70.8096H211.6096L204.8 800.9728a70.8608 70.8608 0 0 1-64-70.5024v-70.4l3.9424-2.4064A174.8992 174.8992 0 0 0 222.72 512l-0.3072-10.4448a174.8992 174.8992 0 0 0-77.6704-135.168l-3.9424-2.4576V293.5296c0-39.1168 31.744-70.8096 70.8096-70.8096h600.7808z" p-id="2582"></path><path d="M358.4 588.8m38.4 0l230.4 0q38.4 0 38.4 38.4l0 0q0 38.4-38.4 38.4l-230.4 0q-38.4 0-38.4-38.4l0 0q0-38.4 38.4-38.4Z" p-id="2583"></path><path d="M358.4 358.4m38.4 0l230.4 0q38.4 0 38.4 38.4l0 0q0 38.4-38.4 38.4l-230.4 0q-38.4 0-38.4-38.4l0 0q0-38.4 38.4-38.4Z" p-id="2584"></path></svg>