<?xml version="1.0" standalone="no"?><!DOCTYPE svg PUBLIC "-//W3C//DTD SVG 1.1//EN" "http://www.w3.org/Graphics/SVG/1.1/DTD/svg11.dtd"><svg t="1640872873442" class="icon" viewBox="0 0 1024 1024" version="1.1" xmlns="http://www.w3.org/2000/svg" p-id="2425" xmlns:xlink="http://www.w3.org/1999/xlink" width="200" height="200"><defs><style type="text/css"></style></defs><path d="M471.1936 113.0496l-230.4 69.7856A140.8 140.8 0 0 0 140.8 317.5936v338.3296a140.8 140.8 0 0 0 78.7456 126.4128l230.4 113.152a140.8 140.8 0 0 0 124.1088 0l230.4-113.152a140.8 140.8 0 0 0 78.7456-126.4128V317.5936a140.8 140.8 0 0 0-99.9936-134.7584l-230.4-69.7856a140.8 140.8 0 0 0-81.6128 0z m59.392 73.472l230.4 69.7856c26.9312 8.192 45.4144 33.0752 45.4144 61.2864v338.3296c0 24.4224-13.8752 46.6944-35.7888 57.4464l-230.4 113.152a64 64 0 0 1-56.4224 0l-230.4-113.152a64 64 0 0 1-35.7888-57.4464V317.5936c0-28.2112 18.432-53.0944 45.4656-61.2864l230.4-69.7856a64 64 0 0 1 37.0688 0z" p-id="2426"></path><path d="M512 281.6a128 128 0 1 0 0 256 128 128 0 0 0 0-256zM512 358.4a51.2 51.2 0 1 1 0 102.4 51.2 51.2 0 0 1 0-102.4z" p-id="2427"></path><path d="M473.6 460.8m38.4 0l0 0q38.4 0 38.4 38.4l0 198.3488q0 38.4-38.4 38.4l0 0q-38.4 0-38.4-38.4l0-198.3488q0-38.4 38.4-38.4Z" p-id="2428"></path><path d="M473.6 563.2m38.4 0l64 0q38.4 0 38.4 38.4l0 0q0 38.4-38.4 38.4l-64 0q-38.4 0-38.4-38.4l0 0q0-38.4 38.4-38.4Z" p-id="2429"></path></svg>