<?xml version="1.0" standalone="no"?><!DOCTYPE svg PUBLIC "-//W3C//DTD SVG 1.1//EN" "http://www.w3.org/Graphics/SVG/1.1/DTD/svg11.dtd"><svg t="1640872879858" class="icon" viewBox="0 0 1024 1024" version="1.1" xmlns="http://www.w3.org/2000/svg" p-id="2888" xmlns:xlink="http://www.w3.org/1999/xlink" width="200" height="200"><defs><style type="text/css"></style></defs><path d="M716.8 780.8V102.4H243.2A140.8 140.8 0 0 0 102.4 243.2v537.6A140.8 140.8 0 0 0 243.2 921.6h332.8A140.8 140.8 0 0 0 716.8 780.8zM243.2 179.2h396.8v601.6c0 35.328-28.672 64-64 64h-332.8c-35.328 0-64-28.672-64-64V243.2c0-35.328 28.672-64 64-64z" p-id="2889"></path><path d="M716.8 102.4h51.2v51.2h-51.2z" fill="#333333" p-id="2890"></path><path d="M535.3472 420.5568c15.104 14.848 15.36 39.168 0.512 54.272l-154.1632 157.184-0.7168 0.5632-3.4816 3.1744a38.0928 38.0928 0 0 1-0.1536 0.1536l4.352-3.84a38.2464 38.2464 0 0 1-8.2944 6.4l-1.2288 0.6656a38.0928 38.0928 0 0 1-37.9904-1.2288l-1.8432-1.2288a29.696 29.696 0 0 1-2.7136-2.048l-1.6896-1.536-69.1712-65.4336a38.4 38.4 0 0 1 52.736-55.808l41.728 39.5264 127.8464-130.2528a38.4 38.4 0 0 1 54.272-0.512zM780.8 102.4a140.8 140.8 0 0 0-140.8 140.8V486.4h140.8A140.8 140.8 0 0 0 921.6 345.6v-102.4A140.8 140.8 0 0 0 780.8 102.4z m0 76.8c35.328 0 64 28.672 64 64v102.4l-0.3072 6.5536A64 64 0 0 1 780.8 409.6H716.8V243.2c0-35.328 28.672-64 64-64z" p-id="2891"></path></svg>