<?xml version="1.0" standalone="no"?><!DOCTYPE svg PUBLIC "-//W3C//DTD SVG 1.1//EN" "http://www.w3.org/Graphics/SVG/1.1/DTD/svg11.dtd"><svg t="1640872891297" class="icon" viewBox="0 0 1024 1024" version="1.1" xmlns="http://www.w3.org/2000/svg" p-id="3810" xmlns:xlink="http://www.w3.org/1999/xlink" width="200" height="200"><defs><style type="text/css"></style></defs><path d="M780.8 102.4H243.2A140.8 140.8 0 0 0 102.4 243.2v537.6A140.8 140.8 0 0 0 243.2 921.6h537.6A140.8 140.8 0 0 0 921.6 780.8V243.2A140.8 140.8 0 0 0 780.8 102.4zM243.2 179.2h537.6c35.328 0 64 28.672 64 64v537.6c0 35.328-28.672 64-64 64H243.2c-35.328 0-64-28.672-64-64V243.2c0-35.328 28.672-64 64-64z" p-id="3811"></path><path d="M618.752 335.0528a38.4 38.4 0 0 1 71.168 28.9792A192 192 0 0 1 512 483.6864a192.7168 192.7168 0 0 1-177.5104-119.4496 38.4 38.4 0 1 1 71.0144-29.3888A115.968 115.968 0 0 0 512 406.8864 115.2 115.2 0 0 0 615.2192 343.04l3.584-7.936z" p-id="3812"></path></svg>