<?xml version="1.0" standalone="no"?><!DOCTYPE svg PUBLIC "-//W3C//DTD SVG 1.1//EN" "http://www.w3.org/Graphics/SVG/1.1/DTD/svg11.dtd"><svg t="1640872889342" class="icon" viewBox="0 0 1024 1024" version="1.1" xmlns="http://www.w3.org/2000/svg" p-id="3656" xmlns:xlink="http://www.w3.org/1999/xlink" width="200" height="200"><defs><style type="text/css"></style></defs><path d="M627.2 187.6992v72.4992l-0.256 3.7888c-0.5632 4.096-6.0416 9.0112-12.544 9.0112H409.6l-3.7376-0.256c-4.1472-0.512-9.0624-6.0416-9.0624-12.544V187.6992H281.6a140.8 140.8 0 0 0-140.8 140.8v452.3008A140.8 140.8 0 0 0 281.6 921.6h460.8a140.8 140.8 0 0 0 140.8-140.8V328.4992a140.8 140.8 0 0 0-140.8-140.8h-115.2z m76.1856 82.944l0.3584-6.1952 38.656 0.0512c35.328 0 64 28.672 64 64v452.3008c0 35.328-28.672 64-64 64h-460.8c-35.328 0-64-28.672-64-64V328.4992l0.3072-6.5536A64 64 0 0 1 281.6 264.4992l38.5536-0.0512-0.1536-4.2496c0 45.568 34.2016 83.7632 79.2064 89.0368l8.192 0.512L614.4 349.7984a89.6 89.6 0 0 0 88.9856-79.2064z" p-id="3657"></path><path d="M358.4 426.6496m38.4 0l230.4 0q38.4 0 38.4 38.4l0 0q0 38.4-38.4 38.4l-230.4 0q-38.4 0-38.4-38.4l0 0q0-38.4 38.4-38.4Z" p-id="3658"></path><path d="M358.4 605.8496m38.4 0l230.4 0q38.4 0 38.4 38.4l0 0q0 38.4-38.4 38.4l-230.4 0q-38.4 0-38.4-38.4l0 0q0-38.4 38.4-38.4Z" p-id="3659"></path><path d="M614.4 102.4H409.6a89.6 89.6 0 0 0-89.6 89.6v68.1984c0 49.5104 40.1408 89.6 89.6 89.6h204.8a89.6 89.6 0 0 0 89.6-89.6V192A89.6 89.6 0 0 0 614.4 102.4zM409.6 179.2h204.8a12.8 12.8 0 0 1 12.8 12.8v68.1984a12.8 12.8 0 0 1-12.8 12.8H409.6a12.8 12.8 0 0 1-12.8-12.8V192A12.8 12.8 0 0 1 409.6 179.2z" p-id="3660"></path></svg>