<?xml version="1.0" standalone="no"?><!DOCTYPE svg PUBLIC "-//W3C//DTD SVG 1.1//EN" "http://www.w3.org/Graphics/SVG/1.1/DTD/svg11.dtd"><svg t="1640872768237" class="icon" viewBox="0 0 1024 1024" version="1.1" xmlns="http://www.w3.org/2000/svg" p-id="877" xmlns:xlink="http://www.w3.org/1999/xlink" width="200" height="200"><defs><style type="text/css"></style></defs><path d="M780.8 102.4H243.2A140.8 140.8 0 0 0 102.4 243.2v537.6A140.8 140.8 0 0 0 243.2 921.6h537.6A140.8 140.8 0 0 0 921.6 780.8V243.2A140.8 140.8 0 0 0 780.8 102.4zM243.2 179.2h537.6c35.328 0 64 28.672 64 64v537.6c0 35.328-28.672 64-64 64H243.2c-35.328 0-64-28.672-64-64V243.2c0-35.328 28.672-64 64-64z" p-id="878"></path><path d="M347.136 705.1264l37.2736-262.5536h-24.576l54.0672-123.6992H336.896c-7.3728 0-13.1072 3.6864-17.2032 11.0592L253.3376 473.7024h40.5504l-33.1776 231.424H347.136z m121.6512 0l6.9632-29.4912 267.0592 29.4912 0.4096-4.9152a32.768 32.768 0 0 0-6.7584-24.9856 33.8432 33.8432 0 0 0-22.7328-12.6976l-99.5328-10.6496 9.4208-66.3552h81.5104c7.68 0 14.336-2.4576 20.0704-7.3728a29.4912 29.4912 0 0 0 10.24-18.8416l2.048-12.6976h-108.544l8.192-58.5728h61.0304a48.7936 48.7936 0 0 0 19.6608-4.096 59.5968 59.5968 0 0 0 36.4544-45.4656l16.384-116.736h-223.6416l-4.5056 32.768h137.6256l-12.288 86.4256a14.848 14.848 0 0 1-4.9152 9.0112 13.2096 13.2096 0 0 1-9.0112 3.6864h-125.7472a9.4208 9.4208 0 0 1-8.192-4.096 11.0592 11.0592 0 0 1-2.8672-8.6016l11.0592-77.0048 1.2288-9.4208 4.9152-32.768H447.8976l-16.384 116.736a47.4112 47.4112 0 0 0 0.8192 19.6608 43.2128 43.2128 0 0 0 8.6016 15.5648c3.84 4.608 8.6016 8.192 14.336 10.6496a44.4416 44.4416 0 0 0 18.432 3.6864h77.4144l-22.1184 154.8288-42.5984-5.3248 31.9488-124.928H465.92c-8.704 0-16.4352 2.56-23.1424 7.7824a36.8128 36.8128 0 0 0-13.312 20.48l-43.008 164.2496h82.3296z" p-id="879"></path></svg>