<?xml version="1.0" standalone="no"?><!DOCTYPE svg PUBLIC "-//W3C//DTD SVG 1.1//EN" "http://www.w3.org/Graphics/SVG/1.1/DTD/svg11.dtd"><svg t="1640942374948" class="icon" viewBox="0 0 1024 1024" version="1.1" xmlns="http://www.w3.org/2000/svg" p-id="1297" xmlns:xlink="http://www.w3.org/1999/xlink" width="200" height="200"><defs><style type="text/css"></style></defs><path d="M152.786 816.76l664.038-664.038 54.447 54.447-664.038 664.038zM426 476c1.6-3.8 3.4-7.5 5.5-11.1 10.4-17.8 26.2-31.3 44.5-39l78.7-78.7c-14.5-3.8-29.5-5.6-44.9-5.4-93.2 1.2-168.1 77-168.1 170.2 0 14.8 1.9 29.1 5.4 42.8L426 476zM598 548c-9.4 22.5-27.5 40.5-50 50l-78.8 78.8c13 3.4 26.7 5.3 40.7 5.4 61.4 0.7 118.4-31.6 149.2-84.5 22.9-39.3 28.8-85.6 17.7-128.5L598 548z" p-id="1298"></path><path d="M198.9 703.1l54.4-54.4c-35.4-34.4-70.3-76.4-104.7-126.2l-7.1-10.4 7.1-10.4C264.2 334.4 384.8 255.3 512 255.3c38.2 0 75.9 7.2 113 21.7l58.5-58.5c-55.2-26.8-112.3-40.3-171.4-40.3-155.8 0-298.1 93.4-427 280L77.8 469l-2.9 4.7c-14.7 25.6-13.5 57.1 2.9 81.5 39.1 57.9 79.5 107.2 121.1 147.9zM946.2 468.8c-39.1-58-79.5-107.3-121.1-147.9l-54.4 54.4c35.4 34.4 70.3 76.4 104.7 126.2l7.1 10.4-7.1 10.4C759.8 689.6 639.2 768.7 512 768.7c-38.2 0-75.9-7.2-113-21.7l-58.5 58.5c55.2 26.8 112.3 40.3 171.5 40.3 155.8 0 298.1-93.4 427-280l7.2-10.7 2.9-4.7c14.7-25.6 13.5-57.2-2.9-81.6z" p-id="1299"></path></svg>