<?xml version="1.0" standalone="no"?><!DOCTYPE svg PUBLIC "-//W3C//DTD SVG 1.1//EN" "http://www.w3.org/Graphics/SVG/1.1/DTD/svg11.dtd"><svg t="1640872870631" class="icon" viewBox="0 0 1024 1024" version="1.1" xmlns="http://www.w3.org/2000/svg" p-id="2271" xmlns:xlink="http://www.w3.org/1999/xlink" width="200" height="200"><defs><style type="text/css"></style></defs><path d="M780.8 256H243.2A140.8 140.8 0 0 0 102.4 396.8v384A140.8 140.8 0 0 0 243.2 921.6h537.6A140.8 140.8 0 0 0 921.6 780.8v-384A140.8 140.8 0 0 0 780.8 256zM243.2 332.8h537.6c35.328 0 64 28.672 64 64v384c0 35.328-28.672 64-64 64H243.2c-35.328 0-64-28.672-64-64v-384c0-35.328 28.672-64 64-64z" fill="#333333" p-id="2272"></path><path d="M345.6 627.2h332.8a38.4 38.4 0 1 1 0 76.8h-332.8a38.4 38.4 0 1 1 0-76.8z" fill="#333333" p-id="2273"></path><path d="M307.2 473.6m38.4 0l230.4 0q38.4 0 38.4 38.4l0 0q0 38.4-38.4 38.4l-230.4 0q-38.4 0-38.4-38.4l0 0q0-38.4 38.4-38.4Z" fill="#333333" p-id="2274"></path><path d="M456.4992 125.44a78.5408 78.5408 0 0 1 105.0624-5.4272l5.9392 5.376 141.824 141.824a38.4 38.4 0 0 1-49.9712 58.0608l-4.3008-3.7376-141.824-141.824c-0.4608-0.4608-1.0752-0.6144-1.6896-0.4608l-0.768 0.4608-141.824 141.824a38.4 38.4 0 0 1-58.0608-49.9712l3.7376-4.3008 141.824-141.824z" fill="#333333" p-id="2275"></path></svg>