<?xml version="1.0" standalone="no"?><!DOCTYPE svg PUBLIC "-//W3C//DTD SVG 1.1//EN" "http://www.w3.org/Graphics/SVG/1.1/DTD/svg11.dtd"><svg t="1640872862346" class="icon" viewBox="0 0 1024 1024" version="1.1" xmlns="http://www.w3.org/2000/svg" p-id="1810" xmlns:xlink="http://www.w3.org/1999/xlink" width="200" height="200"><defs><style type="text/css"></style></defs><path d="M844.8 537.6a38.4 38.4 0 0 1 38.0416 33.1776l0.3584 5.2224v219.4432c0 67.584-55.7056 121.6512-124.7744 125.9008l-8.704 0.256H274.2784c-70.144 0-128.6144-51.4048-133.1712-117.76l-0.3072-8.3968V576a38.4 38.4 0 0 1 76.4416-5.2224l0.3584 5.2224v219.4432c0 24.7808 21.504 46.2848 50.3808 49.0496l6.2976 0.3072h475.4432c29.8496 0 53.3504-19.8656 56.32-44.1344l0.3584-5.2224V576a38.4 38.4 0 0 1 38.4-38.4z" fill="" p-id="1811"></path><path d="M358.4 665.6m38.4 0l230.4 0q38.4 0 38.4 38.4l0 0q0 38.4-38.4 38.4l-230.4 0q-38.4 0-38.4-38.4l0 0q0-38.4 38.4-38.4Z" fill="" p-id="1812"></path><path d="M738.2016 102.4H285.7984a140.8 140.8 0 0 0-133.7856 96.8704l-41.984 128A140.8 140.8 0 0 0 243.712 512H780.288a140.8 140.8 0 0 0 133.7344-184.7296l-41.984-128A140.8 140.8 0 0 0 738.2016 102.4zM285.7984 179.2h452.4032c27.648 0 52.224 17.7664 60.8256 44.032l41.984 128A64 64 0 0 1 780.288 435.2H243.712a64 64 0 0 1-60.7744-83.968l41.984-128a64 64 0 0 1 60.8256-44.032z" p-id="1813"></path></svg>