<?xml version="1.0" standalone="no"?><!DOCTYPE svg PUBLIC "-//W3C//DTD SVG 1.1//EN" "http://www.w3.org/Graphics/SVG/1.1/DTD/svg11.dtd"><svg t="1640872878049" class="icon" viewBox="0 0 1024 1024" version="1.1" xmlns="http://www.w3.org/2000/svg" p-id="2734" xmlns:xlink="http://www.w3.org/1999/xlink" width="200" height="200"><defs><style type="text/css"></style></defs><path d="M443.392 97.6384L187.4944 245.4528a137.1648 137.1648 0 0 0-68.608 118.784v295.5264c0 48.9984 26.1632 94.3104 68.608 118.784l256 147.8144c42.3936 24.4736 94.72 24.4736 137.1136 0l256-147.8144a137.1648 137.1648 0 0 0 68.608-118.784V364.2368c0-48.9984-26.1632-94.3104-68.608-118.784l-256-147.8144a137.1648 137.1648 0 0 0-137.1136 0z m98.816 66.56l255.9488 147.7632c18.6368 10.752 30.208 30.72 30.208 52.224v295.5776c0 21.6064-11.5712 41.472-30.208 52.2752l-256 147.8144c-18.6368 10.752-41.6768 10.752-60.3136 0l-256-147.8144c-18.6368-10.752-30.208-30.72-30.208-52.224V364.1856c0-21.6064 11.5712-41.472 30.208-52.2752l256-147.8144c18.6368-10.752 41.6768-10.752 60.3136 0z" fill="" p-id="2735"></path><path d="M512 371.2a140.8 140.8 0 1 0 0 281.6 140.8 140.8 0 0 0 0-281.6z m0 76.8a64 64 0 1 1 0 128 64 64 0 0 1 0-128z" fill="" p-id="2736"></path></svg>