<?xml version="1.0" standalone="no"?><!DOCTYPE svg PUBLIC "-//W3C//DTD SVG 1.1//EN" "http://www.w3.org/Graphics/SVG/1.1/DTD/svg11.dtd"><svg t="1640872858768" class="icon" viewBox="0 0 1024 1024" version="1.1" xmlns="http://www.w3.org/2000/svg" p-id="1493" xmlns:xlink="http://www.w3.org/1999/xlink" width="200" height="200"><defs><style type="text/css"></style></defs><path d="M716.8 780.8V102.4H243.2A140.8 140.8 0 0 0 102.4 243.2v537.6A140.8 140.8 0 0 0 243.2 921.6h332.8A140.8 140.8 0 0 0 716.8 780.8zM243.2 179.2h396.8v601.6c0 35.328-28.672 64-64 64h-332.8c-35.328 0-64-28.672-64-64V243.2c0-35.328 28.672-64 64-64z" fill="#333333" p-id="1494"></path><path d="M780.8 102.4a140.8 140.8 0 0 0-140.8 140.8V486.4h140.8A140.8 140.8 0 0 0 921.6 345.6v-102.4A140.8 140.8 0 0 0 780.8 102.4z m0 76.8c35.328 0 64 28.672 64 64v102.4l-0.3072 6.5536A64 64 0 0 1 780.8 409.6H716.8V243.2c0-35.328 28.672-64 64-64z" fill="#333333" p-id="1495"></path><path d="M716.8 102.4h51.2v51.2h-51.2z" fill="#333333" p-id="1496"></path><path d="M409.6 358.4a38.4 38.4 0 0 1 38.4 38.4v128a38.4 38.4 0 0 1-76.8 0V396.8A38.4 38.4 0 0 1 409.6 358.4z" fill="#333333" p-id="1497"></path><path d="M409.6 627.2m-51.2 0a51.2 51.2 0 1 0 102.4 0 51.2 51.2 0 1 0-102.4 0Z" fill="#333333" p-id="1498"></path></svg>