<?xml version="1.0" standalone="no"?><!DOCTYPE svg PUBLIC "-//W3C//DTD SVG 1.1//EN" "http://www.w3.org/Graphics/SVG/1.1/DTD/svg11.dtd"><svg t="1640872881991" class="icon" viewBox="0 0 1024 1024" version="1.1" xmlns="http://www.w3.org/2000/svg" p-id="3043" xmlns:xlink="http://www.w3.org/1999/xlink" width="200" height="200"><defs><style type="text/css"></style></defs><path d="M512 102.4a320 320 0 0 0-320 320v332.8c0 21.1968 17.2032 38.4 38.4 38.4h563.2a38.4 38.4 0 0 0 38.4-38.4v-332.8A320 320 0 0 0 512 102.4z m11.1104 77.056A243.2 243.2 0 0 1 755.2 422.4V716.8h-486.4V422.4A243.2 243.2 0 0 1 512 179.2l11.1104 0.256z" fill="" p-id="3044"></path><path d="M128 844.8m38.4 0l691.2 0q38.4 0 38.4 38.4l0 0q0 38.4-38.4 38.4l-691.2 0q-38.4 0-38.4-38.4l0 0q0-38.4 38.4-38.4Z" fill="" p-id="3045"></path><path d="M501.9648 292.7104a38.4 38.4 0 0 1 67.8912 35.4816l-2.6112 5.0176L495.9744 448l101.12 0.0512c31.232 0 48.64 34.816 32.0512 59.5968l-3.2768 4.2496-124.5184 140.8a38.4 38.4 0 0 1-60.9792-46.336l3.4304-4.5568 68.096-77.0048-84.992 0.0512a38.4 38.4 0 0 1-35.072-54.0672l2.4576-4.608 107.6736-173.4144z" fill="" p-id="3046"></path></svg>